<svg width="16" height="16" viewBox="0 0 16 16" fill="none" xmlns="http://www.w3.org/2000/svg">
<rect x="0.15" y="0.15" width="15.7" height="15.7" rx="7.85" fill="white"/>
<rect x="0.15" y="0.15" width="15.7" height="15.7" rx="7.85" fill="url(#paint0_linear_1841_65)"/>
<rect x="0.15" y="0.15" width="15.7" height="15.7" rx="7.85" stroke="#D0D5DD" stroke-width="0.3"/>
<path d="M7.17595 9.15636C6.97931 9.36582 6.72041 9.47055 6.39924 9.47055C6.19605 9.47055 6.01252 9.42145 5.84866 9.32327C5.68479 9.22509 5.55698 9.09091 5.46522 8.92073C5.37345 8.75055 5.32757 8.55745 5.32757 8.34145C5.32757 8.11891 5.37345 7.92255 5.46522 7.75236C5.56354 7.58218 5.69135 7.45127 5.84866 7.35964C6.01252 7.26146 6.19932 7.21236 6.40907 7.21236C6.61881 7.21236 6.80234 7.26146 6.95965 7.35964C7.12351 7.45127 7.24805 7.58218 7.33325 7.75236C7.42502 7.92255 7.4709 8.11891 7.4709 8.34145C7.4709 8.66873 7.37258 8.94036 7.17595 9.15636Z" fill="#0652CC"/>
<path fill-rule="evenodd" clip-rule="evenodd" d="M8 14C11.3137 14 14 11.3137 14 8C14 4.68629 11.3137 2 8 2C4.68629 2 2 4.68629 2 8C2 11.3137 4.68629 14 8 14ZM4.91464 10.5015C5.26203 10.7175 5.6553 10.8255 6.09445 10.8255C6.41562 10.8255 6.7073 10.7633 6.96948 10.6389C7.13883 10.5586 7.28631 10.4591 7.41191 10.3406V10.7273H8.88667V5.95564H7.41191V6.35189C7.28228 6.22816 7.13153 6.12553 6.95965 6.044C6.70402 5.91964 6.41562 5.85745 6.09445 5.85745C5.6553 5.85745 5.26203 5.96545 4.91464 6.18145C4.5738 6.39745 4.30179 6.692 4.0986 7.06509C3.90197 7.43818 3.80365 7.86364 3.80365 8.34145C3.80365 8.81927 3.90197 9.24473 4.0986 9.61782C4.30179 9.99091 4.5738 10.2855 4.91464 10.5015ZM10.1719 10.5309C10.3751 10.7404 10.6308 10.8451 10.9388 10.8451C11.2469 10.8451 11.4992 10.7404 11.6959 10.5309C11.8991 10.3215 12.0007 10.0662 12.0007 9.76509C12.0007 9.45745 11.8991 9.19891 11.6959 8.98945C11.4992 8.78 11.2469 8.67527 10.9388 8.67527C10.6308 8.67527 10.3751 8.78 10.1719 8.98945C9.96876 9.19891 9.86716 9.45745 9.86716 9.76509C9.86716 10.0662 9.96876 10.3215 10.1719 10.5309Z" fill="#0652CC"/>
<defs>
<linearGradient id="paint0_linear_1841_65" x1="8" y1="0" x2="8" y2="16" gradientUnits="userSpaceOnUse">
<stop stop-color="white"/>
<stop offset="1" stop-color="#D0D5DD"/>
</linearGradient>
</defs>
</svg>
